<svg xmlns="http://www.w3.org/2000/svg" width="1920" height="1080" viewBox="0 0 1920 1080" role="img" aria-label="Industrial cookware machinery workshop">
  <defs>
    <linearGradient id="bg" x1="0" x2="1" y1="0" y2="1"><stop stop-color="#15181d"/><stop offset=".55" stop-color="#27313a"/><stop offset="1" stop-color="#171a1f"/></linearGradient>
    <linearGradient id="metal" x1="0" x2="1"><stop stop-color="#8f9aa5"/><stop offset=".5" stop-color="#d7dde3"/><stop offset="1" stop-color="#626d78"/></linearGradient>
  </defs>
  <rect width="1920" height="1080" fill="url(#bg)"/>
  <path d="M0 740h1920v340H0z" fill="#22272e"/>
  <path d="M0 745h1920" stroke="#48515b" stroke-width="4"/>
  <g opacity=".28" stroke="#9aa3ad" stroke-width="3">
    <path d="M170 180h1580M240 260h1440M310 340h1300"/>
    <path d="M360 130v610M680 130v610M1000 130v610M1320 130v610M1640 130v610"/>
  </g>
  <g transform="translate(250 415)">
    <rect x="0" y="110" width="410" height="220" rx="12" fill="#2f3740" stroke="#75808a" stroke-width="8"/>
    <rect x="45" y="0" width="320" height="140" rx="10" fill="url(#metal)" stroke="#f97316" stroke-width="10"/>
    <rect x="142" y="120" width="126" height="145" fill="#f97316"/>
    <rect x="95" y="265" width="220" height="28" fill="#d7dde3"/>
  </g>
  <g transform="translate(830 435)">
    <rect x="0" y="260" width="520" height="52" fill="#68717d"/>
    <circle cx="160" cy="160" r="132" fill="none" stroke="url(#metal)" stroke-width="32"/>
    <circle cx="160" cy="160" r="58" fill="#f97316"/>
    <rect x="320" y="70" width="170" height="240" rx="12" fill="#333b45" stroke="#8f9aa5" stroke-width="8"/>
    <circle cx="390" cy="132" r="22" fill="#22c55e"/>
    <circle cx="445" cy="132" r="22" fill="#f97316"/>
    <rect x="355" y="188" width="100" height="16" fill="#cbd5df"/>
  </g>
  <g opacity=".38" fill="#f97316">
    <rect x="1445" y="500" width="180" height="20"/>
    <rect x="1455" y="550" width="330" height="20"/>
    <rect x="1445" y="600" width="250" height="20"/>
  </g>
</svg>
