<svg xmlns="http://www.w3.org/2000/svg" width="1200" height="620" viewBox="0 0 1200 620" role="img" aria-label="Export markets map placeholder">
  <rect width="1200" height="620" fill="#f4f6f8"/>
  <g fill="#b7c0ca">
    <path d="M175 210l95-45 120 35 45 65-80 58-115-8-85-45z"/>
    <path d="M410 360l80 35 30 90-50 80-78-55-28-95z"/>
    <path d="M545 180l145-60 125 35 80 85-95 70-160-8-115-55z"/>
    <path d="M735 335l85-25 85 55 10 90-90 20-80-55z"/>
    <path d="M890 190l125-20 90 62-35 90-135 12-80-65z"/>
    <path d="M945 440l88 20 72 75-95 35-95-55z"/>
  </g>
  <g fill="#f97316">
    <circle cx="245" cy="230" r="10"/><circle cx="455" cy="420" r="10"/><circle cx="650" cy="230" r="10"/><circle cx="815" cy="380" r="10"/><circle cx="980" cy="245" r="10"/><circle cx="1005" cy="510" r="10"/>
  </g>
</svg>
